<?xml version="1.0" encoding="UTF-8"?>
<svg xmlns="http://www.w3.org/2000/svg" xmlns:xlink="http://www.w3.org/1999/xlink" width="14px" height="14px" viewBox="0 0 14 14" version="1.1">
<g id="surface1">
<path style="fill-rule:nonzero;fill:rgb(100%,100%,100%);fill-opacity:1;stroke-width:1;stroke-linecap:butt;stroke-linejoin:miter;stroke:rgb(100%,100%,100%);stroke-opacity:1;stroke-miterlimit:4;" d="M 47.609375 21.40625 C 48.859375 21.40625 49.515625 20.71875 49.515625 19.484375 L 49.515625 13.734375 C 49.515625 8.90625 47.078125 6.5 42.15625 6.5 L 36.4375 6.5 C 35.1875 6.5 34.515625 7.171875 34.515625 8.375 C 34.515625 9.59375 35.1875 10.265625 36.4375 10.265625 L 42.109375 10.265625 C 44.40625 10.265625 45.734375 11.515625 45.734375 13.953125 L 45.734375 19.484375 C 45.734375 20.71875 46.421875 21.40625 47.609375 21.40625 Z M 8.375 21.40625 C 9.59375 21.40625 10.25 20.71875 10.25 19.484375 L 10.25 13.953125 C 10.25 11.515625 11.5625 10.265625 13.90625 10.265625 L 19.578125 10.265625 C 20.796875 10.265625 21.484375 9.59375 21.484375 8.375 C 21.484375 7.171875 20.796875 6.5 19.578125 6.5 L 13.84375 6.5 C 8.96875 6.5 6.484375 8.90625 6.484375 13.734375 L 6.484375 19.484375 C 6.484375 20.71875 7.15625 21.40625 8.375 21.40625 Z M 17.828125 37.390625 L 37.65625 37.390625 C 39.203125 37.390625 40.328125 36.3125 40.328125 34.8125 L 40.328125 22.90625 C 40.328125 21.40625 39.203125 20.328125 37.65625 20.328125 L 34.09375 20.328125 C 33.5 20.328125 33.203125 20.15625 32.703125 19.578125 L 32.21875 18.96875 C 31.671875 18.28125 31.015625 17.984375 30.21875 17.984375 L 25.296875 17.984375 C 24.453125 17.984375 23.796875 18.28125 23.265625 18.96875 L 22.765625 19.578125 C 22.28125 20.15625 22 20.328125 21.453125 20.328125 L 17.828125 20.328125 C 16.28125 20.328125 15.203125 21.40625 15.203125 22.90625 L 15.203125 34.8125 C 15.203125 36.3125 16.28125 37.390625 17.828125 37.390625 Z M 27.765625 33.9375 C 24.640625 33.9375 22.109375 31.390625 22.109375 28.265625 C 22.109375 25.109375 24.640625 22.578125 27.765625 22.578125 C 30.921875 22.578125 33.4375 25.109375 33.4375 28.265625 C 33.4375 31.390625 30.921875 33.9375 27.765625 33.9375 Z M 27.765625 32.28125 C 29.984375 32.28125 31.796875 30.5 31.796875 28.265625 C 31.796875 26 29.984375 24.21875 27.765625 24.21875 C 25.53125 24.21875 23.75 26 23.75 28.265625 C 23.75 30.5 25.53125 32.28125 27.765625 32.28125 Z M 13.84375 49.5 L 19.578125 49.5 C 20.796875 49.5 21.484375 48.828125 21.484375 47.625 C 21.484375 46.40625 20.796875 45.734375 19.578125 45.734375 L 13.90625 45.734375 C 11.5625 45.734375 10.25 44.484375 10.25 42.046875 L 10.25 36.515625 C 10.25 35.28125 9.578125 34.59375 8.375 34.59375 C 7.140625 34.59375 6.484375 35.28125 6.484375 36.515625 L 6.484375 42.234375 C 6.484375 47.09375 8.96875 49.5 13.84375 49.5 Z M 36.4375 49.5 L 42.15625 49.5 C 47.078125 49.5 49.515625 47.0625 49.515625 42.234375 L 49.515625 36.515625 C 49.515625 35.28125 48.84375 34.59375 47.609375 34.59375 C 46.390625 34.59375 45.734375 35.28125 45.734375 36.515625 L 45.734375 42.046875 C 45.734375 44.484375 44.40625 45.734375 42.109375 45.734375 L 36.4375 45.734375 C 35.1875 45.734375 34.515625 46.40625 34.515625 47.625 C 34.515625 48.828125 35.1875 49.5 36.4375 49.5 Z M 36.4375 49.5 " transform="matrix(0.25,0,0,0.25,0,0)"/>
</g>
</svg>
