<?xml version="1.0" encoding="UTF-8"?>
<svg xmlns="http://www.w3.org/2000/svg" xmlns:xlink="http://www.w3.org/1999/xlink" width="14px" height="14px" viewBox="0 0 14 14" version="1.1">
<g id="surface1">
<path style="fill:none;stroke-width:2;stroke-linecap:round;stroke-linejoin:round;stroke:rgb(100%,100%,100%);stroke-opacity:1;stroke-miterlimit:4;" d="M 11.002232 3.997768 L 6.796875 3.997768 C 5.122768 3.997768 4.279018 3.997768 3.636161 4.325893 C 3.073661 4.613839 2.611607 5.075893 2.323661 5.638393 C 2.002232 6.28125 2.002232 7.118304 2.002232 8.799107 L 2.002232 17.203125 C 2.002232 18.877232 2.002232 19.720982 2.323661 20.363839 C 2.611607 20.926339 3.073661 21.388393 3.636161 21.676339 C 4.279018 21.997768 5.122768 21.997768 6.796875 21.997768 L 15.200893 21.997768 C 16.881696 21.997768 17.71875 21.997768 18.361607 21.676339 C 18.924107 21.388393 19.386161 20.926339 19.674107 20.363839 C 20.002232 19.720982 20.002232 18.877232 20.002232 17.203125 L 20.002232 12.997768 M 8.002232 15.997768 L 9.676339 15.997768 C 10.165179 15.997768 10.40625 15.997768 10.640625 15.944196 C 10.841518 15.897321 11.035714 15.816964 11.216518 15.703125 C 11.417411 15.582589 11.591518 15.408482 11.939732 15.060268 L 21.502232 5.497768 C 22.325893 4.674107 22.325893 3.328125 21.502232 2.497768 C 20.671875 1.674107 19.325893 1.674107 18.502232 2.497768 L 8.939732 12.060268 C 8.591518 12.408482 8.417411 12.582589 8.296875 12.783482 C 8.183036 12.964286 8.102679 13.158482 8.055804 13.359375 C 8.002232 13.59375 8.002232 13.834821 8.002232 14.323661 Z M 8.002232 15.997768 " transform="matrix(0.583333,0,0,0.583333,0,0)"/>
</g>
</svg>
