<svg width="32" height="32" viewBox="0 0 32 32" fill="none" xmlns="http://www.w3.org/2000/svg">
   <path fill-rule="evenodd" clip-rule="evenodd" d="M13.3393 7.50091C13.4862 6.78096 13.5933 6.03325 13.6486 5.33813C14.7866 6.24263 16.2267 7.42676 17.3473 9.06831C18.0479 10.0947 18.6423 11.4889 19.0645 12.6875C19.2742 13.2827 19.4382 13.8205 19.5492 14.2269C19.6048 14.4304 19.6463 14.5981 19.6735 14.7217C19.6919 14.8056 19.7 14.8536 19.7036 14.8748L19.7036 14.8748L19.7036 14.8748C19.7063 14.8905 19.7065 14.8915 19.7065 14.8815C19.7065 15.0719 19.8147 15.2458 19.9855 15.33C20.1563 15.4142 20.3601 15.394 20.5111 15.278C20.5353 15.2594 20.5642 15.2379 20.5973 15.2133C21.0229 14.8963 22.1367 14.0671 22.7133 12.4043C22.7529 12.4873 22.7911 12.571 22.8292 12.6582C23.0234 13.1034 23.2167 13.6474 23.5496 14.6479C24.1926 16.5807 24.2499 17.8098 24.2499 18.9739C24.2499 23.5765 20.5348 27.1667 16 27.1667C11.4507 27.1667 7.75 23.7491 7.75 19.1605C7.75 17.9751 7.89105 16.4655 8.56687 15.3666C9.11085 14.4821 9.45135 14.1164 9.9825 13.5458L9.98253 13.5458C10.1571 13.3583 10.3522 13.1487 10.5818 12.8914C10.7069 12.7512 10.8198 12.6269 10.9232 12.5131L10.9232 12.513C11.1765 12.2342 11.3729 12.018 11.5515 11.7854C11.8141 11.4436 12.0438 11.0626 12.408 10.3777C12.8015 9.63759 13.1194 8.57886 13.3393 7.50091Z" fill="url(#paint0_linear_12356_155169)"></path>
   <defs>
      <linearGradient id="paint0_linear_12356_155169" x1="15.9999" y1="4.33331" x2="15.9999" y2="27.6666" gradientUnits="userSpaceOnUse">
         <stop stop-color="#9C6DA4"></stop>
         <stop offset="1" stop-color="#9C6DA4" stop-opacity="0.64"></stop>
      </linearGradient>
   </defs>
</svg>
